<?xml version="1.0" encoding="UTF-8" standalone="no"?><svg xmlns="http://www.w3.org/2000/svg" xmlns:xlink="http://www.w3.org/1999/xlink" clip-rule="evenodd" stroke-miterlimit="10" viewBox="0 0 857 126"><desc>SVG generated by Keynote</desc><defs></defs><g transform="matrix(1.00, 0.00, -0.00, -1.00, 0.0, 126.0)"><text xml:space="preserve" font-family="Chalkduster,Chalkduster" font-size="87.0" fill="#961817" transform="matrix(1.00, 0.00, -0.00, -1.00, -2.2, 49.8)">H</text><text xml:space="preserve" font-family="Chalkduster,Chalkduster" font-size="87.0" fill="#961817" transform="matrix(1.00, 0.00, -0.00, -1.00, 51.4, 49.8)">u</text><text xml:space="preserve" font-family="Chalkduster,Chalkduster" font-size="87.0" fill="#961817" transform="matrix(1.00, 0.00, -0.00, -1.00, 109.4, 49.8)">m</text><text xml:space="preserve" font-family="Chalkduster,Chalkduster" font-size="87.0" fill="#961817" transform="matrix(1.00, 0.00, -0.00, -1.00, 197.4, 49.8)">a</text><text xml:space="preserve" font-family="Chalkduster,Chalkduster" font-size="87.0" fill="#961817" transform="matrix(1.00, 0.00, -0.00, -1.00, 257.4, 49.8)">n</text><text xml:space="preserve" font-family="Chalkduster,Chalkduster" font-size="87.0" fill="#961817" transform="matrix(1.00, 0.00, -0.00, -1.00, 321.2, 49.8)"> </text><text xml:space="preserve" font-family="Chalkduster,Chalkduster" font-size="87.0" fill="#961817" transform="matrix(1.00, 0.00, -0.00, -1.00, 364.5, 49.8)">C</text><text xml:space="preserve" font-family="Chalkduster,Chalkduster" font-size="87.0" fill="#961817" transform="matrix(1.00, 0.00, -0.00, -1.00, 435.0, 49.8)">e</text><text xml:space="preserve" font-family="Chalkduster,Chalkduster" font-size="87.0" fill="#961817" transform="matrix(1.00, 0.00, -0.00, -1.00, 489.9, 49.8)">n</text><text xml:space="preserve" font-family="Chalkduster,Chalkduster" font-size="87.0" fill="#961817" transform="matrix(1.00, 0.00, -0.00, -1.00, 550.4, 49.8)">t</text><text xml:space="preserve" font-family="Chalkduster,Chalkduster" font-size="87.0" fill="#961817" transform="matrix(1.00, 0.00, -0.00, -1.00, 590.7, 49.8)">i</text><text xml:space="preserve" font-family="Chalkduster,Chalkduster" font-size="87.0" fill="#961817" transform="matrix(1.00, 0.00, -0.00, -1.00, 623.0, 49.8)">p</text><text xml:space="preserve" font-family="Chalkduster,Chalkduster" font-size="87.0" fill="#961817" transform="matrix(1.00, 0.00, -0.00, -1.00, 677.7, 49.8)">e</text><text xml:space="preserve" font-family="Chalkduster,Chalkduster" font-size="87.0" fill="#961817" transform="matrix(1.00, 0.00, -0.00, -1.00, 734.3, 49.8)">d</text><text xml:space="preserve" font-family="Chalkduster,Chalkduster" font-size="87.0" fill="#961817" transform="matrix(1.00, 0.00, -0.00, -1.00, 802.3, 49.8)">e</text></g></svg>