<?xml version="1.0" encoding="UTF-8" standalone="no"?><svg xmlns="http://www.w3.org/2000/svg" xmlns:xlink="http://www.w3.org/1999/xlink" clip-rule="evenodd" stroke-miterlimit="10" viewBox="0 0 1024 768"><desc>SVG generated by Keynote</desc><defs></defs><g transform="matrix(1.00, 0.00, -0.00, -1.00, 0.0, 768.0)"><path d="M 0.0 768.0 L 1024.0 768.0 L 1024.0 0.0 L 0.0 0.0 Z M 0.0 768.0 " fill="#000000"></path><text xml:space="preserve" font-family="Chalkduster,Chalkduster" font-size="100.0" fill="#961817" transform="matrix(1.00, 0.00, -0.00, -1.00, 236.0, 628.6)">D</text><text xml:space="preserve" font-family="Chalkduster,Chalkduster" font-size="100.0" fill="#961817" transform="matrix(1.00, 0.00, -0.00, -1.00, 305.0, 628.6)">e</text><text xml:space="preserve" font-family="Chalkduster,Chalkduster" font-size="100.0" fill="#961817" transform="matrix(1.00, 0.00, -0.00, -1.00, 366.9, 628.6)">a</text><text xml:space="preserve" font-family="Chalkduster,Chalkduster" font-size="100.0" fill="#961817" transform="matrix(1.00, 0.00, -0.00, -1.00, 432.6, 628.6)">d</text><text xml:space="preserve" font-family="Chalkduster,Chalkduster" font-size="100.0" fill="#961817" transform="matrix(1.00, 0.00, -0.00, -1.00, 510.8, 628.6)">l</text><text xml:space="preserve" font-family="Chalkduster,Chalkduster" font-size="100.0" fill="#961817" transform="matrix(1.00, 0.00, -0.00, -1.00, 558.8, 628.6)">i</text><text xml:space="preserve" font-family="Chalkduster,Chalkduster" font-size="100.0" fill="#961817" transform="matrix(1.00, 0.00, -0.00, -1.00, 598.3, 628.6)">n</text><text xml:space="preserve" font-family="Chalkduster,Chalkduster" font-size="100.0" fill="#961817" transform="matrix(1.00, 0.00, -0.00, -1.00, 673.2, 628.6)">e</text><text xml:space="preserve" font-family="Chalkduster,Chalkduster" font-size="100.0" fill="#961817" transform="matrix(1.00, 0.00, -0.00, -1.00, 737.6, 628.6)">s</text><text xml:space="preserve" font-family="Chalkduster,Chalkduster" font-size="26.7" fill="#FEFFFF" transform="matrix(1.00, 0.00, -0.00, -1.00, 79.0, 515.0)">•</text><text xml:space="preserve" font-family="Chalkduster,Chalkduster" font-size="35.6" fill="#FEFFFF" transform="matrix(1.00, 0.00, -0.00, -1.00, 102.1, 511.1)">T</text><text xml:space="preserve" font-family="Chalkduster,Chalkduster" font-size="35.6" fill="#FEFFFF" transform="matrix(1.00, 0.00, -0.00, -1.00, 129.5, 511.1)">h</text><text xml:space="preserve" font-family="Chalkduster,Chalkduster" font-size="35.6" fill="#FEFFFF" transform="matrix(1.00, 0.00, -0.00, -1.00, 151.5, 511.1)">e</text><text xml:space="preserve" font-family="Chalkduster,Chalkduster" font-size="35.6" fill="#FEFFFF" transform="matrix(1.00, 0.00, -0.00, -1.00, 173.6, 511.1)"> </text><text xml:space="preserve" font-family="Chalkduster,Chalkduster" font-size="35.6" fill="#FEFFFF" transform="matrix(1.00, 0.00, -0.00, -1.00, 191.3, 511.1)">e</text><text xml:space="preserve" font-family="Chalkduster,Chalkduster" font-size="35.6" fill="#FEFFFF" transform="matrix(1.00, 0.00, -0.00, -1.00, 214.2, 511.1)">s</text><text xml:space="preserve" font-family="Chalkduster,Chalkduster" font-size="35.6" fill="#FEFFFF" transform="matrix(1.00, 0.00, -0.00, -1.00, 232.2, 511.1)">s</text><text xml:space="preserve" font-family="Chalkduster,Chalkduster" font-size="35.6" fill="#FEFFFF" transform="matrix(1.00, 0.00, -0.00, -1.00, 250.2, 511.1)">e</text><text xml:space="preserve" font-family="Chalkduster,Chalkduster" font-size="35.6" fill="#FEFFFF" transform="matrix(1.00, 0.00, -0.00, -1.00, 272.7, 511.1)">n</text><text xml:space="preserve" font-family="Chalkduster,Chalkduster" font-size="35.6" fill="#FEFFFF" transform="matrix(1.00, 0.00, -0.00, -1.00, 297.5, 511.1)">t</text><text xml:space="preserve" font-family="Chalkduster,Chalkduster" font-size="35.6" fill="#FEFFFF" transform="matrix(1.00, 0.00, -0.00, -1.00, 314.0, 511.1)">i</text><text xml:space="preserve" font-family="Chalkduster,Chalkduster" font-size="35.6" fill="#FEFFFF" transform="matrix(1.00, 0.00, -0.00, -1.00, 328.4, 511.1)">a</text><text xml:space="preserve" font-family="Chalkduster,Chalkduster" font-size="35.6" fill="#FEFFFF" transform="matrix(1.00, 0.00, -0.00, -1.00, 351.5, 511.1)">l</text><text xml:space="preserve" font-family="Chalkduster,Chalkduster" font-size="35.6" fill="#FEFFFF" transform="matrix(1.00, 0.00, -0.00, -1.00, 368.2, 511.1)"> </text><text xml:space="preserve" font-family="Chalkduster,Chalkduster" font-size="35.6" fill="#FEFFFF" transform="matrix(1.00, 0.00, -0.00, -1.00, 385.9, 511.1)">e</text><text xml:space="preserve" font-family="Chalkduster,Chalkduster" font-size="35.6" fill="#FEFFFF" transform="matrix(1.00, 0.00, -0.00, -1.00, 408.0, 511.1)">l</text><text xml:space="preserve" font-family="Chalkduster,Chalkduster" font-size="35.6" fill="#FEFFFF" transform="matrix(1.00, 0.00, -0.00, -1.00, 422.8, 511.1)">e</text><text xml:space="preserve" font-family="Chalkduster,Chalkduster" font-size="35.6" fill="#FEFFFF" transform="matrix(1.00, 0.00, -0.00, -1.00, 444.9, 511.1)">m</text><text xml:space="preserve" font-family="Chalkduster,Chalkduster" font-size="35.6" fill="#FEFFFF" transform="matrix(1.00, 0.00, -0.00, -1.00, 481.8, 511.1)">e</text><text xml:space="preserve" font-family="Chalkduster,Chalkduster" font-size="35.6" fill="#FEFFFF" transform="matrix(1.00, 0.00, -0.00, -1.00, 504.3, 511.1)">n</text><text xml:space="preserve" font-family="Chalkduster,Chalkduster" font-size="35.6" fill="#FEFFFF" transform="matrix(1.00, 0.00, -0.00, -1.00, 529.1, 511.1)">t</text><text xml:space="preserve" font-family="Chalkduster,Chalkduster" font-size="35.6" fill="#FEFFFF" transform="matrix(1.00, 0.00, -0.00, -1.00, 545.4, 511.1)">s</text><text xml:space="preserve" font-family="Chalkduster,Chalkduster" font-size="35.6" fill="#FEFFFF" transform="matrix(1.00, 0.00, -0.00, -1.00, 563.4, 511.1)"> </text><text xml:space="preserve" font-family="Chalkduster,Chalkduster" font-size="35.6" fill="#FEFFFF" transform="matrix(1.00, 0.00, -0.00, -1.00, 581.1, 511.1)">o</text><text xml:space="preserve" font-family="Chalkduster,Chalkduster" font-size="35.6" fill="#FEFFFF" transform="matrix(1.00, 0.00, -0.00, -1.00, 606.7, 511.1)">f</text><text xml:space="preserve" font-family="Chalkduster,Chalkduster" font-size="35.6" fill="#FEFFFF" transform="matrix(1.00, 0.00, -0.00, -1.00, 625.7, 511.1)"> </text><text xml:space="preserve" font-family="Chalkduster,Chalkduster" font-size="35.6" fill="#FEFFFF" transform="matrix(1.00, 0.00, -0.00, -1.00, 643.4, 511.1)">d</text><text xml:space="preserve" font-family="Chalkduster,Chalkduster" font-size="35.6" fill="#FEFFFF" transform="matrix(1.00, 0.00, -0.00, -1.00, 671.2, 511.1)">e</text><text xml:space="preserve" font-family="Chalkduster,Chalkduster" font-size="35.6" fill="#FEFFFF" transform="matrix(1.00, 0.00, -0.00, -1.00, 693.3, 511.1)">a</text><text xml:space="preserve" font-family="Chalkduster,Chalkduster" font-size="35.6" fill="#FEFFFF" transform="matrix(1.00, 0.00, -0.00, -1.00, 716.7, 511.1)">d</text><text xml:space="preserve" font-family="Chalkduster,Chalkduster" font-size="35.6" fill="#FEFFFF" transform="matrix(1.00, 0.00, -0.00, -1.00, 744.6, 511.1)">l</text><text xml:space="preserve" font-family="Chalkduster,Chalkduster" font-size="35.6" fill="#FEFFFF" transform="matrix(1.00, 0.00, -0.00, -1.00, 761.7, 511.1)">i</text><text xml:space="preserve" font-family="Chalkduster,Chalkduster" font-size="35.6" fill="#FEFFFF" transform="matrix(1.00, 0.00, -0.00, -1.00, 775.8, 511.1)">n</text><text xml:space="preserve" font-family="Chalkduster,Chalkduster" font-size="35.6" fill="#FEFFFF" transform="matrix(1.00, 0.00, -0.00, -1.00, 802.5, 511.1)">e</text><text xml:space="preserve" font-family="Chalkduster,Chalkduster" font-size="35.6" fill="#FEFFFF" transform="matrix(1.00, 0.00, -0.00, -1.00, 825.4, 511.1)">s</text><text xml:space="preserve" font-family="Chalkduster,Chalkduster" font-size="35.6" fill="#FEFFFF" transform="matrix(1.00, 0.00, -0.00, -1.00, 843.4, 511.1)"> </text><text xml:space="preserve" font-family="Chalkduster,Chalkduster" font-size="35.6" fill="#FEFFFF" transform="matrix(1.00, 0.00, -0.00, -1.00, 861.1, 511.1)">a</text><text xml:space="preserve" font-family="Chalkduster,Chalkduster" font-size="35.6" fill="#FEFFFF" transform="matrix(1.00, 0.00, -0.00, -1.00, 883.8, 511.1)">r</text><text xml:space="preserve" font-family="Chalkduster,Chalkduster" font-size="35.6" fill="#FEFFFF" transform="matrix(1.00, 0.00, -0.00, -1.00, 901.9, 511.1)">e</text><text xml:space="preserve" font-family="Chalkduster,Chalkduster" font-size="35.6" fill="#FEFFFF" transform="matrix(1.00, 0.00, -0.00, -1.00, 924.0, 511.1)">:</text><text xml:space="preserve" font-family="Chalkduster,Chalkduster" font-size="35.6" fill="#FEFFFF" transform="matrix(1.00, 0.00, -0.00, -1.00, 935.7, 511.1)"> </text><text xml:space="preserve" font-family="Chalkduster,Chalkduster" font-size="35.6" fill="#FEFFFF" transform="matrix(1.00, 0.00, -0.00, -1.00, 131.0, 429.3)">1</text><text xml:space="preserve" font-family="Chalkduster,Chalkduster" font-size="35.6" fill="#FEFFFF" transform="matrix(1.00, 0.00, -0.00, -1.00, 151.1, 429.3)">.</text><text xml:space="preserve" font-family="Chalkduster,Chalkduster" font-size="35.6" fill="#FEFFFF" transform="matrix(1.00, 0.00, -0.00, -1.00, 165.3, 429.3)">t</text><text xml:space="preserve" font-family="Chalkduster,Chalkduster" font-size="35.6" fill="#FEFFFF" transform="matrix(1.00, 0.00, -0.00, -1.00, 182.3, 429.3)">h</text><text xml:space="preserve" font-family="Chalkduster,Chalkduster" font-size="35.6" fill="#FEFFFF" transform="matrix(1.00, 0.00, -0.00, -1.00, 204.3, 429.3)">e</text><text xml:space="preserve" font-family="Chalkduster,Chalkduster" font-size="35.6" fill="#FEFFFF" transform="matrix(1.00, 0.00, -0.00, -1.00, 226.4, 429.3)"> </text><text xml:space="preserve" font-family="Chalkduster,Chalkduster" font-size="35.6" fill="#FEFFFF" transform="matrix(1.00, 0.00, -0.00, -1.00, 244.2, 429.3)">t</text><text xml:space="preserve" font-family="Chalkduster,Chalkduster" font-size="35.6" fill="#FEFFFF" transform="matrix(1.00, 0.00, -0.00, -1.00, 261.2, 429.3)">h</text><text xml:space="preserve" font-family="Chalkduster,Chalkduster" font-size="35.6" fill="#FEFFFF" transform="matrix(1.00, 0.00, -0.00, -1.00, 283.2, 429.3)">r</text><text xml:space="preserve" font-family="Chalkduster,Chalkduster" font-size="35.6" fill="#FEFFFF" transform="matrix(1.00, 0.00, -0.00, -1.00, 301.2, 429.3)">e</text><text xml:space="preserve" font-family="Chalkduster,Chalkduster" font-size="35.6" fill="#FEFFFF" transform="matrix(1.00, 0.00, -0.00, -1.00, 323.3, 429.3)">a</text><text xml:space="preserve" font-family="Chalkduster,Chalkduster" font-size="35.6" fill="#FEFFFF" transform="matrix(1.00, 0.00, -0.00, -1.00, 345.4, 429.3)">t</text><text xml:space="preserve" font-family="Chalkduster,Chalkduster" font-size="35.6" fill="#FEFFFF" transform="matrix(1.00, 0.00, -0.00, -1.00, 361.7, 429.3)"> </text><text xml:space="preserve" font-family="Chalkduster,Chalkduster" font-size="35.6" fill="#FEFFFF" transform="matrix(1.00, 0.00, -0.00, -1.00, 379.4, 429.3)">o</text><text xml:space="preserve" font-family="Chalkduster,Chalkduster" font-size="35.6" fill="#FEFFFF" transform="matrix(1.00, 0.00, -0.00, -1.00, 405.0, 429.3)">f</text><text xml:space="preserve" font-family="Chalkduster,Chalkduster" font-size="35.6" fill="#FEFFFF" transform="matrix(1.00, 0.00, -0.00, -1.00, 424.0, 429.3)"> </text><text xml:space="preserve" font-family="Chalkduster,Chalkduster" font-size="35.6" fill="#FEFFFF" transform="matrix(1.00, 0.00, -0.00, -1.00, 441.7, 429.3)">t</text><text xml:space="preserve" font-family="Chalkduster,Chalkduster" font-size="35.6" fill="#FEFFFF" transform="matrix(1.00, 0.00, -0.00, -1.00, 458.8, 429.3)">h</text><text xml:space="preserve" font-family="Chalkduster,Chalkduster" font-size="35.6" fill="#FEFFFF" transform="matrix(1.00, 0.00, -0.00, -1.00, 480.8, 429.3)">e</text><text xml:space="preserve" font-family="Chalkduster,Chalkduster" font-size="35.6" fill="#FEFFFF" transform="matrix(1.00, 0.00, -0.00, -1.00, 502.9, 429.3)"> </text><text xml:space="preserve" font-family="Chalkduster,Chalkduster" font-size="35.6" fill="#FEFFFF" transform="matrix(1.00, 0.00, -0.00, -1.00, 520.6, 429.3)">d</text><text xml:space="preserve" font-family="Chalkduster,Chalkduster" font-size="35.6" fill="#FEFFFF" transform="matrix(1.00, 0.00, -0.00, -1.00, 548.4, 429.3)">e</text><text xml:space="preserve" font-family="Chalkduster,Chalkduster" font-size="35.6" fill="#FEFFFF" transform="matrix(1.00, 0.00, -0.00, -1.00, 570.5, 429.3)">a</text><text xml:space="preserve" font-family="Chalkduster,Chalkduster" font-size="35.6" fill="#FEFFFF" transform="matrix(1.00, 0.00, -0.00, -1.00, 593.9, 429.3)">d</text><text xml:space="preserve" font-family="Chalkduster,Chalkduster" font-size="35.6" fill="#FEFFFF" transform="matrix(1.00, 0.00, -0.00, -1.00, 621.8, 429.3)">l</text><text xml:space="preserve" font-family="Chalkduster,Chalkduster" font-size="35.6" fill="#FEFFFF" transform="matrix(1.00, 0.00, -0.00, -1.00, 638.9, 429.3)">i</text><text xml:space="preserve" font-family="Chalkduster,Chalkduster" font-size="35.6" fill="#FEFFFF" transform="matrix(1.00, 0.00, -0.00, -1.00, 653.0, 429.3)">n</text><text xml:space="preserve" font-family="Chalkduster,Chalkduster" font-size="35.6" fill="#FEFFFF" transform="matrix(1.00, 0.00, -0.00, -1.00, 679.7, 429.3)">e</text><text xml:space="preserve" font-family="Chalkduster,Chalkduster" font-size="35.6" fill="#FEFFFF" transform="matrix(1.00, 0.00, -0.00, -1.00, 702.6, 429.3)">s</text><text xml:space="preserve" font-family="Chalkduster,Chalkduster" font-size="35.6" fill="#FEFFFF" transform="matrix(1.00, 0.00, -0.00, -1.00, 720.6, 429.3)"> </text><text xml:space="preserve" font-family="Chalkduster,Chalkduster" font-size="35.6" fill="#FEFFFF" transform="matrix(1.00, 0.00, -0.00, -1.00, 131.0, 347.6)">2</text><text xml:space="preserve" font-family="Chalkduster,Chalkduster" font-size="35.6" fill="#FEFFFF" transform="matrix(1.00, 0.00, -0.00, -1.00, 151.8, 347.6)">.</text><text xml:space="preserve" font-family="Chalkduster,Chalkduster" font-size="35.6" fill="#FEFFFF" transform="matrix(1.00, 0.00, -0.00, -1.00, 165.3, 347.6)">t</text><text xml:space="preserve" font-family="Chalkduster,Chalkduster" font-size="35.6" fill="#FEFFFF" transform="matrix(1.00, 0.00, -0.00, -1.00, 182.3, 347.6)">h</text><text xml:space="preserve" font-family="Chalkduster,Chalkduster" font-size="35.6" fill="#FEFFFF" transform="matrix(1.00, 0.00, -0.00, -1.00, 204.3, 347.6)">e</text><text xml:space="preserve" font-family="Chalkduster,Chalkduster" font-size="35.6" fill="#FEFFFF" transform="matrix(1.00, 0.00, -0.00, -1.00, 226.4, 347.6)"> </text><text xml:space="preserve" font-family="Chalkduster,Chalkduster" font-size="35.6" fill="#FEFFFF" transform="matrix(1.00, 0.00, -0.00, -1.00, 244.2, 347.6)">p</text><text xml:space="preserve" font-family="Chalkduster,Chalkduster" font-size="35.6" fill="#FEFFFF" transform="matrix(1.00, 0.00, -0.00, -1.00, 266.2, 347.6)">r</text><text xml:space="preserve" font-family="Chalkduster,Chalkduster" font-size="35.6" fill="#FEFFFF" transform="matrix(1.00, 0.00, -0.00, -1.00, 284.4, 347.6)">o</text><text xml:space="preserve" font-family="Chalkduster,Chalkduster" font-size="35.6" fill="#FEFFFF" transform="matrix(1.00, 0.00, -0.00, -1.00, 310.6, 347.6)">c</text><text xml:space="preserve" font-family="Chalkduster,Chalkduster" font-size="35.6" fill="#FEFFFF" transform="matrix(1.00, 0.00, -0.00, -1.00, 332.2, 347.6)">e</text><text xml:space="preserve" font-family="Chalkduster,Chalkduster" font-size="35.6" fill="#FEFFFF" transform="matrix(1.00, 0.00, -0.00, -1.00, 355.1, 347.6)">s</text><text xml:space="preserve" font-family="Chalkduster,Chalkduster" font-size="35.6" fill="#FEFFFF" transform="matrix(1.00, 0.00, -0.00, -1.00, 373.1, 347.6)">s</text><text xml:space="preserve" font-family="Chalkduster,Chalkduster" font-size="35.6" fill="#FEFFFF" transform="matrix(1.00, 0.00, -0.00, -1.00, 391.1, 347.6)"> </text><text xml:space="preserve" font-family="Chalkduster,Chalkduster" font-size="35.6" fill="#FEFFFF" transform="matrix(1.00, 0.00, -0.00, -1.00, 408.8, 347.6)">g</text><text xml:space="preserve" font-family="Chalkduster,Chalkduster" font-size="35.6" fill="#FEFFFF" transform="matrix(1.00, 0.00, -0.00, -1.00, 434.4, 347.6)">i</text><text xml:space="preserve" font-family="Chalkduster,Chalkduster" font-size="35.6" fill="#FEFFFF" transform="matrix(1.00, 0.00, -0.00, -1.00, 448.5, 347.6)">v</text><text xml:space="preserve" font-family="Chalkduster,Chalkduster" font-size="35.6" fill="#FEFFFF" transform="matrix(1.00, 0.00, -0.00, -1.00, 470.7, 347.6)">i</text><text xml:space="preserve" font-family="Chalkduster,Chalkduster" font-size="35.6" fill="#FEFFFF" transform="matrix(1.00, 0.00, -0.00, -1.00, 484.8, 347.6)">n</text><text xml:space="preserve" font-family="Chalkduster,Chalkduster" font-size="35.6" fill="#FEFFFF" transform="matrix(1.00, 0.00, -0.00, -1.00, 509.8, 347.6)">g</text><text xml:space="preserve" font-family="Chalkduster,Chalkduster" font-size="35.6" fill="#FEFFFF" transform="matrix(1.00, 0.00, -0.00, -1.00, 534.1, 347.6)"> </text><text xml:space="preserve" font-family="Chalkduster,Chalkduster" font-size="35.6" fill="#FEFFFF" transform="matrix(1.00, 0.00, -0.00, -1.00, 551.8, 347.6)">r</text><text xml:space="preserve" font-family="Chalkduster,Chalkduster" font-size="35.6" fill="#FEFFFF" transform="matrix(1.00, 0.00, -0.00, -1.00, 571.6, 347.6)">i</text><text xml:space="preserve" font-family="Chalkduster,Chalkduster" font-size="35.6" fill="#FEFFFF" transform="matrix(1.00, 0.00, -0.00, -1.00, 585.6, 347.6)">s</text><text xml:space="preserve" font-family="Chalkduster,Chalkduster" font-size="35.6" fill="#FEFFFF" transform="matrix(1.00, 0.00, -0.00, -1.00, 603.6, 347.6)">e</text><text xml:space="preserve" font-family="Chalkduster,Chalkduster" font-size="35.6" fill="#FEFFFF" transform="matrix(1.00, 0.00, -0.00, -1.00, 625.7, 347.6)"> </text><text xml:space="preserve" font-family="Chalkduster,Chalkduster" font-size="35.6" fill="#FEFFFF" transform="matrix(1.00, 0.00, -0.00, -1.00, 643.4, 347.6)">t</text><text xml:space="preserve" font-family="Chalkduster,Chalkduster" font-size="35.6" fill="#FEFFFF" transform="matrix(1.00, 0.00, -0.00, -1.00, 658.2, 347.6)">o</text><text xml:space="preserve" font-family="Chalkduster,Chalkduster" font-size="35.6" fill="#FEFFFF" transform="matrix(1.00, 0.00, -0.00, -1.00, 683.8, 347.6)"> </text><text xml:space="preserve" font-family="Chalkduster,Chalkduster" font-size="35.6" fill="#FEFFFF" transform="matrix(1.00, 0.00, -0.00, -1.00, 701.5, 347.6)">t</text><text xml:space="preserve" font-family="Chalkduster,Chalkduster" font-size="35.6" fill="#FEFFFF" transform="matrix(1.00, 0.00, -0.00, -1.00, 718.5, 347.6)">h</text><text xml:space="preserve" font-family="Chalkduster,Chalkduster" font-size="35.6" fill="#FEFFFF" transform="matrix(1.00, 0.00, -0.00, -1.00, 740.5, 347.6)">e</text><text xml:space="preserve" font-family="Chalkduster,Chalkduster" font-size="35.6" fill="#FEFFFF" transform="matrix(1.00, 0.00, -0.00, -1.00, 762.6, 347.6)"> </text><text xml:space="preserve" font-family="Chalkduster,Chalkduster" font-size="35.6" fill="#FEFFFF" transform="matrix(1.00, 0.00, -0.00, -1.00, 165.3, 293.6)">d</text><text xml:space="preserve" font-family="Chalkduster,Chalkduster" font-size="35.6" fill="#FEFFFF" transform="matrix(1.00, 0.00, -0.00, -1.00, 193.2, 293.6)">e</text><text xml:space="preserve" font-family="Chalkduster,Chalkduster" font-size="35.6" fill="#FEFFFF" transform="matrix(1.00, 0.00, -0.00, -1.00, 215.3, 293.6)">a</text><text xml:space="preserve" font-family="Chalkduster,Chalkduster" font-size="35.6" fill="#FEFFFF" transform="matrix(1.00, 0.00, -0.00, -1.00, 238.7, 293.6)">d</text><text xml:space="preserve" font-family="Chalkduster,Chalkduster" font-size="35.6" fill="#FEFFFF" transform="matrix(1.00, 0.00, -0.00, -1.00, 266.5, 293.6)">l</text><text xml:space="preserve" font-family="Chalkduster,Chalkduster" font-size="35.6" fill="#FEFFFF" transform="matrix(1.00, 0.00, -0.00, -1.00, 283.7, 293.6)">i</text><text xml:space="preserve" font-family="Chalkduster,Chalkduster" font-size="35.6" fill="#FEFFFF" transform="matrix(1.00, 0.00, -0.00, -1.00, 297.7, 293.6)">n</text><text xml:space="preserve" font-family="Chalkduster,Chalkduster" font-size="35.6" fill="#FEFFFF" transform="matrix(1.00, 0.00, -0.00, -1.00, 324.4, 293.6)">e</text><text xml:space="preserve" font-family="Chalkduster,Chalkduster" font-size="35.6" fill="#FEFFFF" transform="matrix(1.00, 0.00, -0.00, -1.00, 346.5, 293.6)"> </text><text xml:space="preserve" font-family="Chalkduster,Chalkduster" font-size="35.6" fill="#FEFFFF" transform="matrix(1.00, 0.00, -0.00, -1.00, 131.0, 211.9)">3</text><text xml:space="preserve" font-family="Chalkduster,Chalkduster" font-size="35.6" fill="#FEFFFF" transform="matrix(1.00, 0.00, -0.00, -1.00, 154.2, 211.9)">.</text><text xml:space="preserve" font-family="Chalkduster,Chalkduster" font-size="35.6" fill="#FEFFFF" transform="matrix(1.00, 0.00, -0.00, -1.00, 166.3, 211.9)">t</text><text xml:space="preserve" font-family="Chalkduster,Chalkduster" font-size="35.6" fill="#FEFFFF" transform="matrix(1.00, 0.00, -0.00, -1.00, 183.3, 211.9)">h</text><text xml:space="preserve" font-family="Chalkduster,Chalkduster" font-size="35.6" fill="#FEFFFF" transform="matrix(1.00, 0.00, -0.00, -1.00, 205.3, 211.9)">e</text><text xml:space="preserve" font-family="Chalkduster,Chalkduster" font-size="35.6" fill="#FEFFFF" transform="matrix(1.00, 0.00, -0.00, -1.00, 227.4, 211.9)"> </text><text xml:space="preserve" font-family="Chalkduster,Chalkduster" font-size="35.6" fill="#FEFFFF" transform="matrix(1.00, 0.00, -0.00, -1.00, 245.1, 211.9)">p</text><text xml:space="preserve" font-family="Chalkduster,Chalkduster" font-size="35.6" fill="#FEFFFF" transform="matrix(1.00, 0.00, -0.00, -1.00, 267.1, 211.9)">r</text><text xml:space="preserve" font-family="Chalkduster,Chalkduster" font-size="35.6" fill="#FEFFFF" transform="matrix(1.00, 0.00, -0.00, -1.00, 285.4, 211.9)">o</text><text xml:space="preserve" font-family="Chalkduster,Chalkduster" font-size="35.6" fill="#FEFFFF" transform="matrix(1.00, 0.00, -0.00, -1.00, 311.6, 211.9)">c</text><text xml:space="preserve" font-family="Chalkduster,Chalkduster" font-size="35.6" fill="#FEFFFF" transform="matrix(1.00, 0.00, -0.00, -1.00, 333.2, 211.9)">e</text><text xml:space="preserve" font-family="Chalkduster,Chalkduster" font-size="35.6" fill="#FEFFFF" transform="matrix(1.00, 0.00, -0.00, -1.00, 356.1, 211.9)">s</text><text xml:space="preserve" font-family="Chalkduster,Chalkduster" font-size="35.6" fill="#FEFFFF" transform="matrix(1.00, 0.00, -0.00, -1.00, 374.1, 211.9)">s</text><text xml:space="preserve" font-family="Chalkduster,Chalkduster" font-size="35.6" fill="#FEFFFF" transform="matrix(1.00, 0.00, -0.00, -1.00, 392.1, 211.9)"> </text><text xml:space="preserve" font-family="Chalkduster,Chalkduster" font-size="35.6" fill="#FEFFFF" transform="matrix(1.00, 0.00, -0.00, -1.00, 409.8, 211.9)">t</text><text xml:space="preserve" font-family="Chalkduster,Chalkduster" font-size="35.6" fill="#FEFFFF" transform="matrix(1.00, 0.00, -0.00, -1.00, 424.5, 211.9)">o</text><text xml:space="preserve" font-family="Chalkduster,Chalkduster" font-size="35.6" fill="#FEFFFF" transform="matrix(1.00, 0.00, -0.00, -1.00, 450.1, 211.9)"> </text><text xml:space="preserve" font-family="Chalkduster,Chalkduster" font-size="35.6" fill="#FEFFFF" transform="matrix(1.00, 0.00, -0.00, -1.00, 467.9, 211.9)">b</text><text xml:space="preserve" font-family="Chalkduster,Chalkduster" font-size="35.6" fill="#FEFFFF" transform="matrix(1.00, 0.00, -0.00, -1.00, 488.6, 211.9)">e</text><text xml:space="preserve" font-family="Chalkduster,Chalkduster" font-size="35.6" fill="#FEFFFF" transform="matrix(1.00, 0.00, -0.00, -1.00, 510.7, 211.9)"> </text><text xml:space="preserve" font-family="Chalkduster,Chalkduster" font-size="35.6" fill="#FEFFFF" transform="matrix(1.00, 0.00, -0.00, -1.00, 528.4, 211.9)">f</text><text xml:space="preserve" font-family="Chalkduster,Chalkduster" font-size="35.6" fill="#FEFFFF" transform="matrix(1.00, 0.00, -0.00, -1.00, 547.4, 211.9)">i</text><text xml:space="preserve" font-family="Chalkduster,Chalkduster" font-size="35.6" fill="#FEFFFF" transform="matrix(1.00, 0.00, -0.00, -1.00, 561.5, 211.9)">n</text><text xml:space="preserve" font-family="Chalkduster,Chalkduster" font-size="35.6" fill="#FEFFFF" transform="matrix(1.00, 0.00, -0.00, -1.00, 588.2, 211.9)">i</text><text xml:space="preserve" font-family="Chalkduster,Chalkduster" font-size="35.6" fill="#FEFFFF" transform="matrix(1.00, 0.00, -0.00, -1.00, 602.3, 211.9)">s</text><text xml:space="preserve" font-family="Chalkduster,Chalkduster" font-size="35.6" fill="#FEFFFF" transform="matrix(1.00, 0.00, -0.00, -1.00, 620.7, 211.9)">h</text><text xml:space="preserve" font-family="Chalkduster,Chalkduster" font-size="35.6" fill="#FEFFFF" transform="matrix(1.00, 0.00, -0.00, -1.00, 642.7, 211.9)">e</text><text xml:space="preserve" font-family="Chalkduster,Chalkduster" font-size="35.6" fill="#FEFFFF" transform="matrix(1.00, 0.00, -0.00, -1.00, 665.9, 211.9)">d</text><text xml:space="preserve" font-family="Chalkduster,Chalkduster" font-size="35.6" fill="#FEFFFF" transform="matrix(1.00, 0.00, -0.00, -1.00, 693.7, 211.9)"> </text><text xml:space="preserve" font-family="Chalkduster,Chalkduster" font-size="35.6" fill="#FEFFFF" transform="matrix(1.00, 0.00, -0.00, -1.00, 711.5, 211.9)">w</text><text xml:space="preserve" font-family="Chalkduster,Chalkduster" font-size="35.6" fill="#FEFFFF" transform="matrix(1.00, 0.00, -0.00, -1.00, 741.9, 211.9)">i</text><text xml:space="preserve" font-family="Chalkduster,Chalkduster" font-size="35.6" fill="#FEFFFF" transform="matrix(1.00, 0.00, -0.00, -1.00, 756.4, 211.9)">t</text><text xml:space="preserve" font-family="Chalkduster,Chalkduster" font-size="35.6" fill="#FEFFFF" transform="matrix(1.00, 0.00, -0.00, -1.00, 773.4, 211.9)">h</text><text xml:space="preserve" font-family="Chalkduster,Chalkduster" font-size="35.6" fill="#FEFFFF" transform="matrix(1.00, 0.00, -0.00, -1.00, 796.0, 211.9)">i</text><text xml:space="preserve" font-family="Chalkduster,Chalkduster" font-size="35.6" fill="#FEFFFF" transform="matrix(1.00, 0.00, -0.00, -1.00, 810.1, 211.9)">n</text><text xml:space="preserve" font-family="Chalkduster,Chalkduster" font-size="35.6" fill="#FEFFFF" transform="matrix(1.00, 0.00, -0.00, -1.00, 836.2, 211.9)"> </text><text xml:space="preserve" font-family="Chalkduster,Chalkduster" font-size="35.6" fill="#FEFFFF" transform="matrix(1.00, 0.00, -0.00, -1.00, 854.0, 211.9)">t</text><text xml:space="preserve" font-family="Chalkduster,Chalkduster" font-size="35.6" fill="#FEFFFF" transform="matrix(1.00, 0.00, -0.00, -1.00, 871.0, 211.9)">h</text><text xml:space="preserve" font-family="Chalkduster,Chalkduster" font-size="35.6" fill="#FEFFFF" transform="matrix(1.00, 0.00, -0.00, -1.00, 893.0, 211.9)">e</text><text xml:space="preserve" font-family="Chalkduster,Chalkduster" font-size="35.6" fill="#FEFFFF" transform="matrix(1.00, 0.00, -0.00, -1.00, 915.1, 211.9)"> </text><text xml:space="preserve" font-family="Chalkduster,Chalkduster" font-size="35.6" fill="#FEFFFF" transform="matrix(1.00, 0.00, -0.00, -1.00, 165.3, 157.9)">d</text><text xml:space="preserve" font-family="Chalkduster,Chalkduster" font-size="35.6" fill="#FEFFFF" transform="matrix(1.00, 0.00, -0.00, -1.00, 193.2, 157.9)">e</text><text xml:space="preserve" font-family="Chalkduster,Chalkduster" font-size="35.6" fill="#FEFFFF" transform="matrix(1.00, 0.00, -0.00, -1.00, 215.3, 157.9)">a</text><text xml:space="preserve" font-family="Chalkduster,Chalkduster" font-size="35.6" fill="#FEFFFF" transform="matrix(1.00, 0.00, -0.00, -1.00, 238.7, 157.9)">d</text><text xml:space="preserve" font-family="Chalkduster,Chalkduster" font-size="35.6" fill="#FEFFFF" transform="matrix(1.00, 0.00, -0.00, -1.00, 266.5, 157.9)">l</text><text xml:space="preserve" font-family="Chalkduster,Chalkduster" font-size="35.6" fill="#FEFFFF" transform="matrix(1.00, 0.00, -0.00, -1.00, 283.7, 157.9)">i</text><text xml:space="preserve" font-family="Chalkduster,Chalkduster" font-size="35.6" fill="#FEFFFF" transform="matrix(1.00, 0.00, -0.00, -1.00, 297.7, 157.9)">n</text><text xml:space="preserve" font-family="Chalkduster,Chalkduster" font-size="35.6" fill="#FEFFFF" transform="matrix(1.00, 0.00, -0.00, -1.00, 324.4, 157.9)">e</text><text xml:space="preserve" font-family="Chalkduster,Chalkduster" font-size="35.6" fill="#FEFFFF" transform="matrix(1.00, 0.00, -0.00, -1.00, 346.5, 157.9)"> </text><text xml:space="preserve" font-family="Chalkduster,Chalkduster" font-size="27.1" fill="#FEFFFF" transform="matrix(1.00, 0.00, -0.00, -1.00, 97.0, 85.6)">(</text><text xml:space="preserve" font-family="Chalkduster,Chalkduster" font-size="27.1" fill="#FEFFFF" transform="matrix(1.00, 0.00, -0.00, -1.00, 107.8, 85.6)">S</text><text xml:space="preserve" font-family="Chalkduster,Chalkduster" font-size="27.1" fill="#FEFFFF" transform="matrix(1.00, 0.00, -0.00, -1.00, 121.2, 85.6)">o</text><text xml:space="preserve" font-family="Chalkduster,Chalkduster" font-size="27.1" fill="#FEFFFF" transform="matrix(1.00, 0.00, -0.00, -1.00, 141.5, 85.6)">u</text><text xml:space="preserve" font-family="Chalkduster,Chalkduster" font-size="27.1" fill="#FEFFFF" transform="matrix(1.00, 0.00, -0.00, -1.00, 160.5, 85.6)">r</text><text xml:space="preserve" font-family="Chalkduster,Chalkduster" font-size="27.1" fill="#FEFFFF" transform="matrix(1.00, 0.00, -0.00, -1.00, 174.5, 85.6)">c</text><text xml:space="preserve" font-family="Chalkduster,Chalkduster" font-size="27.1" fill="#FEFFFF" transform="matrix(1.00, 0.00, -0.00, -1.00, 190.9, 85.6)">e</text><text xml:space="preserve" font-family="Chalkduster,Chalkduster" font-size="27.1" fill="#FEFFFF" transform="matrix(1.00, 0.00, -0.00, -1.00, 207.6, 85.6)">:</text><text xml:space="preserve" font-family="Chalkduster,Chalkduster" font-size="27.1" fill="#FEFFFF" transform="matrix(1.00, 0.00, -0.00, -1.00, 216.6, 85.6)"> </text><text xml:space="preserve" font-family="Chalkduster,Chalkduster" font-size="27.1" fill="#FEFFFF" transform="matrix(1.00, 0.00, -0.00, -1.00, 228.2, 85.6)">A</text><text xml:space="preserve" font-family="Chalkduster,Chalkduster" font-size="27.1" fill="#FEFFFF" transform="matrix(1.00, 0.00, -0.00, -1.00, 248.2, 85.6)">n</text><text xml:space="preserve" font-family="Chalkduster,Chalkduster" font-size="27.1" fill="#FEFFFF" transform="matrix(1.00, 0.00, -0.00, -1.00, 267.0, 85.6)">t</text><text xml:space="preserve" font-family="Chalkduster,Chalkduster" font-size="27.1" fill="#FEFFFF" transform="matrix(1.00, 0.00, -0.00, -1.00, 278.2, 85.6)">o</text><text xml:space="preserve" font-family="Chalkduster,Chalkduster" font-size="27.1" fill="#FEFFFF" transform="matrix(1.00, 0.00, -0.00, -1.00, 298.3, 85.6)">n</text><text xml:space="preserve" font-family="Chalkduster,Chalkduster" font-size="27.1" fill="#FEFFFF" transform="matrix(1.00, 0.00, -0.00, -1.00, 318.1, 85.6)"> </text><text xml:space="preserve" font-family="Chalkduster,Chalkduster" font-size="27.1" fill="#FEFFFF" transform="matrix(1.00, 0.00, -0.00, -1.00, 331.6, 85.6)">F</text><text xml:space="preserve" font-family="Chalkduster,Chalkduster" font-size="27.1" fill="#FEFFFF" transform="matrix(1.00, 0.00, -0.00, -1.00, 351.7, 85.6)">u</text><text xml:space="preserve" font-family="Chalkduster,Chalkduster" font-size="27.1" fill="#FEFFFF" transform="matrix(1.00, 0.00, -0.00, -1.00, 370.3, 85.6)">x</text><text xml:space="preserve" font-family="Chalkduster,Chalkduster" font-size="27.1" fill="#FEFFFF" transform="matrix(1.00, 0.00, -0.00, -1.00, 387.6, 85.6)">j</text><text xml:space="preserve" font-family="Chalkduster,Chalkduster" font-size="27.1" fill="#FEFFFF" transform="matrix(1.00, 0.00, -0.00, -1.00, 400.2, 85.6)">a</text><text xml:space="preserve" font-family="Chalkduster,Chalkduster" font-size="27.1" fill="#FEFFFF" transform="matrix(1.00, 0.00, -0.00, -1.00, 418.3, 85.6)">e</text><text xml:space="preserve" font-family="Chalkduster,Chalkduster" font-size="27.1" fill="#FEFFFF" transform="matrix(1.00, 0.00, -0.00, -1.00, 434.2, 85.6)">g</text><text xml:space="preserve" font-family="Chalkduster,Chalkduster" font-size="27.1" fill="#FEFFFF" transform="matrix(1.00, 0.00, -0.00, -1.00, 453.1, 85.6)">e</text><text xml:space="preserve" font-family="Chalkduster,Chalkduster" font-size="27.1" fill="#FEFFFF" transform="matrix(1.00, 0.00, -0.00, -1.00, 469.6, 85.6)">r</text><text xml:space="preserve" font-family="Chalkduster,Chalkduster" font-size="27.1" fill="#FEFFFF" transform="matrix(1.00, 0.00, -0.00, -1.00, 480.7, 85.6)">,</text><text xml:space="preserve" font-family="Chalkduster,Chalkduster" font-size="27.1" fill="#FEFFFF" transform="matrix(1.00, 0.00, -0.00, -1.00, 489.0, 85.6)"> </text><text xml:space="preserve" font-family="Chalkduster,Chalkduster" font-size="27.1" fill="#FEFFFF" transform="matrix(1.00, 0.00, -0.00, -1.00, 502.5, 85.6)">U</text><text xml:space="preserve" font-family="Chalkduster,Chalkduster" font-size="27.1" fill="#FEFFFF" transform="matrix(1.00, 0.00, -0.00, -1.00, 521.8, 85.6)">n</text><text xml:space="preserve" font-family="Chalkduster,Chalkduster" font-size="27.1" fill="#FEFFFF" transform="matrix(1.00, 0.00, -0.00, -1.00, 542.1, 85.6)">i</text><text xml:space="preserve" font-family="Chalkduster,Chalkduster" font-size="27.1" fill="#FEFFFF" transform="matrix(1.00, 0.00, -0.00, -1.00, 552.8, 85.6)">v</text><text xml:space="preserve" font-family="Chalkduster,Chalkduster" font-size="27.1" fill="#FEFFFF" transform="matrix(1.00, 0.00, -0.00, -1.00, 569.4, 85.6)">e</text><text xml:space="preserve" font-family="Chalkduster,Chalkduster" font-size="27.1" fill="#FEFFFF" transform="matrix(1.00, 0.00, -0.00, -1.00, 585.9, 85.6)">r</text><text xml:space="preserve" font-family="Chalkduster,Chalkduster" font-size="27.1" fill="#FEFFFF" transform="matrix(1.00, 0.00, -0.00, -1.00, 599.9, 85.6)">s</text><text xml:space="preserve" font-family="Chalkduster,Chalkduster" font-size="27.1" fill="#FEFFFF" transform="matrix(1.00, 0.00, -0.00, -1.00, 613.6, 85.6)">i</text><text xml:space="preserve" font-family="Chalkduster,Chalkduster" font-size="27.1" fill="#FEFFFF" transform="matrix(1.00, 0.00, -0.00, -1.00, 624.6, 85.6)">t</text><text xml:space="preserve" font-family="Chalkduster,Chalkduster" font-size="27.1" fill="#FEFFFF" transform="matrix(1.00, 0.00, -0.00, -1.00, 636.9, 85.6)">y</text><text xml:space="preserve" font-family="Chalkduster,Chalkduster" font-size="27.1" fill="#FEFFFF" transform="matrix(1.00, 0.00, -0.00, -1.00, 653.4, 85.6)"> </text><text xml:space="preserve" font-family="Chalkduster,Chalkduster" font-size="27.1" fill="#FEFFFF" transform="matrix(1.00, 0.00, -0.00, -1.00, 666.9, 85.6)">o</text><text xml:space="preserve" font-family="Chalkduster,Chalkduster" font-size="27.1" fill="#FEFFFF" transform="matrix(1.00, 0.00, -0.00, -1.00, 686.3, 85.6)">f</text><text xml:space="preserve" font-family="Chalkduster,Chalkduster" font-size="27.1" fill="#FEFFFF" transform="matrix(1.00, 0.00, -0.00, -1.00, 700.7, 85.6)"> </text><text xml:space="preserve" font-family="Chalkduster,Chalkduster" font-size="27.1" fill="#FEFFFF" transform="matrix(1.00, 0.00, -0.00, -1.00, 711.7, 85.6)">V</text><text xml:space="preserve" font-family="Chalkduster,Chalkduster" font-size="27.1" fill="#FEFFFF" transform="matrix(1.00, 0.00, -0.00, -1.00, 731.8, 85.6)">i</text><text xml:space="preserve" font-family="Chalkduster,Chalkduster" font-size="27.1" fill="#FEFFFF" transform="matrix(1.00, 0.00, -0.00, -1.00, 742.5, 85.6)">e</text><text xml:space="preserve" font-family="Chalkduster,Chalkduster" font-size="27.1" fill="#FEFFFF" transform="matrix(1.00, 0.00, -0.00, -1.00, 759.6, 85.6)">n</text><text xml:space="preserve" font-family="Chalkduster,Chalkduster" font-size="27.1" fill="#FEFFFF" transform="matrix(1.00, 0.00, -0.00, -1.00, 779.4, 85.6)">n</text><text xml:space="preserve" font-family="Chalkduster,Chalkduster" font-size="27.1" fill="#FEFFFF" transform="matrix(1.00, 0.00, -0.00, -1.00, 799.3, 85.6)">a</text><text xml:space="preserve" font-family="Chalkduster,Chalkduster" font-size="27.1" fill="#FEFFFF" transform="matrix(1.00, 0.00, -0.00, -1.00, 817.9, 85.6)">)</text></g></svg>