<?xml version="1.0" encoding="UTF-8" standalone="no"?><svg xmlns="http://www.w3.org/2000/svg" xmlns:xlink="http://www.w3.org/1999/xlink" clip-rule="evenodd" stroke-miterlimit="10" viewBox="0 0 1024 768"><desc>SVG generated by Keynote</desc><defs></defs><g transform="matrix(1.00, 0.00, -0.00, -1.00, 0.0, 768.0)"><path d="M 0.0 768.0 L 1024.0 768.0 L 1024.0 0.0 L 0.0 0.0 Z M 0.0 768.0 " fill="#000000"></path><text xml:space="preserve" font-family="Chalkduster,Chalkduster" font-size="87.0" fill="#961817" transform="matrix(1.00, 0.00, -0.00, -1.00, 82.8, 632.8)">H</text><text xml:space="preserve" font-family="Chalkduster,Chalkduster" font-size="87.0" fill="#961817" transform="matrix(1.00, 0.00, -0.00, -1.00, 136.4, 632.8)">u</text><text xml:space="preserve" font-family="Chalkduster,Chalkduster" font-size="87.0" fill="#961817" transform="matrix(1.00, 0.00, -0.00, -1.00, 194.4, 632.8)">m</text><text xml:space="preserve" font-family="Chalkduster,Chalkduster" font-size="87.0" fill="#961817" transform="matrix(1.00, 0.00, -0.00, -1.00, 282.4, 632.8)">a</text><text xml:space="preserve" font-family="Chalkduster,Chalkduster" font-size="87.0" fill="#961817" transform="matrix(1.00, 0.00, -0.00, -1.00, 342.4, 632.8)">n</text><text xml:space="preserve" font-family="Chalkduster,Chalkduster" font-size="87.0" fill="#961817" transform="matrix(1.00, 0.00, -0.00, -1.00, 406.2, 632.8)"> </text><text xml:space="preserve" font-family="Chalkduster,Chalkduster" font-size="87.0" fill="#961817" transform="matrix(1.00, 0.00, -0.00, -1.00, 449.5, 632.8)">C</text><text xml:space="preserve" font-family="Chalkduster,Chalkduster" font-size="87.0" fill="#961817" transform="matrix(1.00, 0.00, -0.00, -1.00, 520.0, 632.8)">e</text><text xml:space="preserve" font-family="Chalkduster,Chalkduster" font-size="87.0" fill="#961817" transform="matrix(1.00, 0.00, -0.00, -1.00, 574.9, 632.8)">n</text><text xml:space="preserve" font-family="Chalkduster,Chalkduster" font-size="87.0" fill="#961817" transform="matrix(1.00, 0.00, -0.00, -1.00, 635.4, 632.8)">t</text><text xml:space="preserve" font-family="Chalkduster,Chalkduster" font-size="87.0" fill="#961817" transform="matrix(1.00, 0.00, -0.00, -1.00, 675.7, 632.8)">i</text><text xml:space="preserve" font-family="Chalkduster,Chalkduster" font-size="87.0" fill="#961817" transform="matrix(1.00, 0.00, -0.00, -1.00, 708.0, 632.8)">p</text><text xml:space="preserve" font-family="Chalkduster,Chalkduster" font-size="87.0" fill="#961817" transform="matrix(1.00, 0.00, -0.00, -1.00, 762.7, 632.8)">e</text><text xml:space="preserve" font-family="Chalkduster,Chalkduster" font-size="87.0" fill="#961817" transform="matrix(1.00, 0.00, -0.00, -1.00, 819.3, 632.8)">d</text><text xml:space="preserve" font-family="Chalkduster,Chalkduster" font-size="87.0" fill="#961817" transform="matrix(1.00, 0.00, -0.00, -1.00, 887.3, 632.8)">e</text><image xlink:href="D98D9F189718E6BFF3719007744C2CDB.png" width="540.00" height="360.00" transform="matrix(1.63, 0.00, -0.00, -1.63, 72.1, 603.3)"></image><image xlink:href="778B071ACA6C1AE996C53F6682D35E04.png" width="900.00" height="612.00" transform="matrix(1.00, 0.00, -0.00, 1.00, 62.1, -2.2)"></image></g></svg>