<?xml version="1.0" encoding="UTF-8" standalone="no"?><svg xmlns="http://www.w3.org/2000/svg" xmlns:xlink="http://www.w3.org/1999/xlink" clip-rule="evenodd" stroke-miterlimit="10" viewBox="0 0 1024 768"><desc>SVG generated by Keynote</desc><defs></defs><g transform="matrix(1.00, 0.00, -0.00, -1.00, 0.0, 768.0)"><path d="M 0.0 768.0 L 1024.0 768.0 L 1024.0 0.0 L 0.0 0.0 Z M 0.0 768.0 " fill="#000000"></path><g><clipPath id="clip0x7f860799d160"><path d="M 0.0 768.0 L 1024.0 768.0 L 1024.0 0.0 L 0.0 0.0 Z M -0.2 768.0 "></path></clipPath><g clip-path="url(#clip0x7f860799d160)"><image xlink:href="57710B4B652851D1779EA641E6A1AF99.jpeg" width="625.00" height="417.00" transform="matrix(1.84, 0.00, -0.00, -1.84, -63.8, 768.0)"></image></g></g><text xml:space="preserve" font-family="Chalkduster,Chalkduster" font-size="102.0" fill="#961817" transform="matrix(1.00, 0.00, -0.00, -1.00, 5.5, 682.7)">T</text><text xml:space="preserve" font-family="Chalkduster,Chalkduster" font-size="102.0" fill="#961817" transform="matrix(1.00, 0.00, -0.00, -1.00, 83.8, 682.7)">h</text><text xml:space="preserve" font-family="Chalkduster,Chalkduster" font-size="102.0" fill="#961817" transform="matrix(1.00, 0.00, -0.00, -1.00, 146.8, 682.7)">e</text><text xml:space="preserve" font-family="Chalkduster,Chalkduster" font-size="102.0" fill="#961817" transform="matrix(1.00, 0.00, -0.00, -1.00, 210.0, 682.7)"> </text><text xml:space="preserve" font-family="Chalkduster,Chalkduster" font-size="102.0" fill="#961817" transform="matrix(1.00, 0.00, -0.00, -1.00, 5.5, 552.7)">S</text><text xml:space="preserve" font-family="Chalkduster,Chalkduster" font-size="102.0" fill="#961817" transform="matrix(1.00, 0.00, -0.00, -1.00, 56.2, 552.7)">l</text><text xml:space="preserve" font-family="Chalkduster,Chalkduster" font-size="102.0" fill="#961817" transform="matrix(1.00, 0.00, -0.00, -1.00, 101.9, 552.7)">a</text><text xml:space="preserve" font-family="Chalkduster,Chalkduster" font-size="102.0" fill="#961817" transform="matrix(1.00, 0.00, -0.00, -1.00, 172.2, 552.7)">u</text><text xml:space="preserve" font-family="Chalkduster,Chalkduster" font-size="102.0" fill="#961817" transform="matrix(1.00, 0.00, -0.00, -1.00, 242.4, 552.7)">g</text><text xml:space="preserve" font-family="Chalkduster,Chalkduster" font-size="102.0" fill="#961817" transform="matrix(1.00, 0.00, -0.00, -1.00, 316.2, 552.7)">h</text><text xml:space="preserve" font-family="Chalkduster,Chalkduster" font-size="102.0" fill="#961817" transform="matrix(1.00, 0.00, -0.00, -1.00, 374.5, 552.7)">t</text><text xml:space="preserve" font-family="Chalkduster,Chalkduster" font-size="102.0" fill="#961817" transform="matrix(1.00, 0.00, -0.00, -1.00, 420.1, 552.7)">e</text><text xml:space="preserve" font-family="Chalkduster,Chalkduster" font-size="102.0" fill="#961817" transform="matrix(1.00, 0.00, -0.00, -1.00, 482.3, 552.7)">r</text><text xml:space="preserve" font-family="Chalkduster,Chalkduster" font-size="102.0" fill="#961817" transform="matrix(1.00, 0.00, -0.00, -1.00, 536.7, 552.7)">d</text><text xml:space="preserve" font-family="Chalkduster,Chalkduster" font-size="102.0" fill="#961817" transform="matrix(1.00, 0.00, -0.00, -1.00, 616.4, 552.7)">o</text><text xml:space="preserve" font-family="Chalkduster,Chalkduster" font-size="102.0" fill="#961817" transform="matrix(1.00, 0.00, -0.00, -1.00, 694.0, 552.7)">l</text><text xml:space="preserve" font-family="Chalkduster,Chalkduster" font-size="102.0" fill="#961817" transform="matrix(1.00, 0.00, -0.00, -1.00, 740.3, 552.7)">l</text><text xml:space="preserve" font-family="Chalkduster,Chalkduster" font-size="102.0" fill="#961817" transform="matrix(1.00, 0.00, -0.00, -1.00, 788.1, 552.7)">s</text><text xml:space="preserve" font-family="Chalkduster,Chalkduster" font-size="102.0" fill="#961817" transform="matrix(1.00, 0.00, -0.00, -1.00, 839.6, 552.7)"> </text><text xml:space="preserve" font-family="Chalkduster,Chalkduster" font-size="102.0" fill="#961817" transform="matrix(1.00, 0.00, -0.00, -1.00, 5.5, 422.7)">P</text><text xml:space="preserve" font-family="Chalkduster,Chalkduster" font-size="102.0" fill="#961817" transform="matrix(1.00, 0.00, -0.00, -1.00, 76.4, 422.7)">r</text><text xml:space="preserve" font-family="Chalkduster,Chalkduster" font-size="102.0" fill="#961817" transform="matrix(1.00, 0.00, -0.00, -1.00, 128.1, 422.7)">e</text><text xml:space="preserve" font-family="Chalkduster,Chalkduster" font-size="102.0" fill="#961817" transform="matrix(1.00, 0.00, -0.00, -1.00, 193.6, 422.7)">s</text><text xml:space="preserve" font-family="Chalkduster,Chalkduster" font-size="102.0" fill="#961817" transform="matrix(1.00, 0.00, -0.00, -1.00, 245.2, 422.7)">e</text><text xml:space="preserve" font-family="Chalkduster,Chalkduster" font-size="102.0" fill="#961817" transform="matrix(1.00, 0.00, -0.00, -1.00, 309.5, 422.7)">n</text><text xml:space="preserve" font-family="Chalkduster,Chalkduster" font-size="102.0" fill="#961817" transform="matrix(1.00, 0.00, -0.00, -1.00, 380.5, 422.7)">t</text><text xml:space="preserve" font-family="Chalkduster,Chalkduster" font-size="102.0" fill="#961817" transform="matrix(1.00, 0.00, -0.00, -1.00, 427.1, 422.7)">:</text><text xml:space="preserve" font-family="Chalkduster,Chalkduster" font-size="197.0" fill="#961817" transform="matrix(1.00, 0.00, -0.00, -1.00, 6.2, 57.5)">S</text><text xml:space="preserve" font-family="Chalkduster,Chalkduster" font-size="197.0" fill="#961817" transform="matrix(1.00, 0.00, -0.00, -1.00, 104.2, 57.5)">U</text><text xml:space="preserve" font-family="Chalkduster,Chalkduster" font-size="197.0" fill="#961817" transform="matrix(1.00, 0.00, -0.00, -1.00, 244.5, 57.5)">S</text><text xml:space="preserve" font-family="Chalkduster,Chalkduster" font-size="197.0" fill="#961817" transform="matrix(1.00, 0.00, -0.00, -1.00, 342.5, 57.5)">P</text><text xml:space="preserve" font-family="Chalkduster,Chalkduster" font-size="197.0" fill="#961817" transform="matrix(1.00, 0.00, -0.00, -1.00, 482.5, 57.5)">E</text><text xml:space="preserve" font-family="Chalkduster,Chalkduster" font-size="197.0" fill="#961817" transform="matrix(1.00, 0.00, -0.00, -1.00, 628.1, 57.5)">N</text><text xml:space="preserve" font-family="Chalkduster,Chalkduster" font-size="197.0" fill="#961817" transform="matrix(1.00, 0.00, -0.00, -1.00, 768.1, 57.5)">S</text><text xml:space="preserve" font-family="Chalkduster,Chalkduster" font-size="197.0" fill="#961817" transform="matrix(1.00, 0.00, -0.00, -1.00, 872.2, 57.5)">E</text><text xml:space="preserve" font-family="Helvetica-Light,Helvetica" font-size="22.0" fill="#FEFFFF" transform="matrix(1.00, 0.00, -0.00, -1.00, 871.9, 729.0)">A</text><text xml:space="preserve" font-family="Helvetica-Light,Helvetica" font-size="22.0" fill="#FEFFFF" transform="matrix(1.00, 0.00, -0.00, -1.00, 886.6, 729.0)">l</text><text xml:space="preserve" font-family="Helvetica-Light,Helvetica" font-size="22.0" fill="#FEFFFF" transform="matrix(1.00, 0.00, -0.00, -1.00, 891.5, 729.0)">e</text><text xml:space="preserve" font-family="Helvetica-Light,Helvetica" font-size="22.0" fill="#FEFFFF" transform="matrix(1.00, 0.00, -0.00, -1.00, 903.7, 729.0)">x</text><text xml:space="preserve" font-family="Helvetica-Light,Helvetica" font-size="22.0" fill="#FEFFFF" transform="matrix(1.00, 0.00, -0.00, -1.00, 914.7, 729.0)"> </text><text xml:space="preserve" font-family="Helvetica-Light,Helvetica" font-size="22.0" fill="#FEFFFF" transform="matrix(1.00, 0.00, -0.00, -1.00, 920.8, 729.0)">S</text><text xml:space="preserve" font-family="Helvetica-Light,Helvetica" font-size="22.0" fill="#FEFFFF" transform="matrix(1.00, 0.00, -0.00, -1.00, 934.2, 729.0)">h</text><text xml:space="preserve" font-family="Helvetica-Light,Helvetica" font-size="22.0" fill="#FEFFFF" transform="matrix(1.00, 0.00, -0.00, -1.00, 946.5, 729.0)">u</text><text xml:space="preserve" font-family="Helvetica-Light,Helvetica" font-size="22.0" fill="#FEFFFF" transform="matrix(1.00, 0.00, -0.00, -1.00, 958.7, 729.0)">r</text><text xml:space="preserve" font-family="Helvetica-Light,Helvetica" font-size="22.0" fill="#FEFFFF" transform="matrix(1.00, 0.00, -0.00, -1.00, 966.0, 729.0)">l</text><text xml:space="preserve" font-family="Helvetica-Light,Helvetica" font-size="22.0" fill="#FEFFFF" transform="matrix(1.00, 0.00, -0.00, -1.00, 970.9, 729.0)">o</text><text xml:space="preserve" font-family="Helvetica-Light,Helvetica" font-size="22.0" fill="#FEFFFF" transform="matrix(1.00, 0.00, -0.00, -1.00, 983.2, 729.0)">c</text><text xml:space="preserve" font-family="Helvetica-Light,Helvetica" font-size="22.0" fill="#FEFFFF" transform="matrix(1.00, 0.00, -0.00, -1.00, 995.4, 729.0)">k</text><text xml:space="preserve" font-family="Helvetica-Light,Helvetica" font-size="22.0" fill="#FEFFFF" transform="matrix(1.00, 0.00, -0.00, -1.00, 1006.4, 729.0)"> </text><text xml:space="preserve" font-family="Helvetica-Light,Helvetica" font-size="22.0" fill="#FEFFFF" transform="matrix(1.00, 0.00, -0.00, -1.00, 872.5, 703.0)">A</text><text xml:space="preserve" font-family="Helvetica-Light,Helvetica" font-size="22.0" fill="#FEFFFF" transform="matrix(1.00, 0.00, -0.00, -1.00, 887.2, 703.0)">l</text><text xml:space="preserve" font-family="Helvetica-Light,Helvetica" font-size="22.0" fill="#FEFFFF" transform="matrix(1.00, 0.00, -0.00, -1.00, 892.1, 703.0)">y</text><text xml:space="preserve" font-family="Helvetica-Light,Helvetica" font-size="22.0" fill="#FEFFFF" transform="matrix(1.00, 0.00, -0.00, -1.00, 903.1, 703.0)">s</text><text xml:space="preserve" font-family="Helvetica-Light,Helvetica" font-size="22.0" fill="#FEFFFF" transform="matrix(1.00, 0.00, -0.00, -1.00, 914.1, 703.0)">s</text><text xml:space="preserve" font-family="Helvetica-Light,Helvetica" font-size="22.0" fill="#FEFFFF" transform="matrix(1.00, 0.00, -0.00, -1.00, 925.1, 703.0)">a</text><text xml:space="preserve" font-family="Helvetica-Light,Helvetica" font-size="22.0" fill="#FEFFFF" transform="matrix(1.00, 0.00, -0.00, -1.00, 937.3, 703.0)"> </text><text xml:space="preserve" font-family="Helvetica-Light,Helvetica" font-size="22.0" fill="#FEFFFF" transform="matrix(1.00, 0.00, -0.00, -1.00, 943.4, 703.0)">P</text><text xml:space="preserve" font-family="Helvetica-Light,Helvetica" font-size="22.0" fill="#FEFFFF" transform="matrix(1.00, 0.00, -0.00, -1.00, 956.9, 703.0)">o</text><text xml:space="preserve" font-family="Helvetica-Light,Helvetica" font-size="22.0" fill="#FEFFFF" transform="matrix(1.00, 0.00, -0.00, -1.00, 969.1, 703.0)">n</text><text xml:space="preserve" font-family="Helvetica-Light,Helvetica" font-size="22.0" fill="#FEFFFF" transform="matrix(1.00, 0.00, -0.00, -1.00, 981.3, 703.0)">c</text><text xml:space="preserve" font-family="Helvetica-Light,Helvetica" font-size="22.0" fill="#FEFFFF" transform="matrix(1.00, 0.00, -0.00, -1.00, 993.6, 703.0)">e</text><text xml:space="preserve" font-family="Helvetica-Light,Helvetica" font-size="22.0" fill="#FEFFFF" transform="matrix(1.00, 0.00, -0.00, -1.00, 1005.8, 703.0)"> </text><text xml:space="preserve" font-family="Helvetica-Light,Helvetica" font-size="22.0" fill="#FEFFFF" transform="matrix(1.00, 0.00, -0.00, -1.00, 885.4, 677.0)">E</text><text xml:space="preserve" font-family="Helvetica-Light,Helvetica" font-size="22.0" fill="#FEFFFF" transform="matrix(1.00, 0.00, -0.00, -1.00, 898.8, 677.0)">i</text><text xml:space="preserve" font-family="Helvetica-Light,Helvetica" font-size="22.0" fill="#FEFFFF" transform="matrix(1.00, 0.00, -0.00, -1.00, 903.7, 677.0)">l</text><text xml:space="preserve" font-family="Helvetica-Light,Helvetica" font-size="22.0" fill="#FEFFFF" transform="matrix(1.00, 0.00, -0.00, -1.00, 908.6, 677.0)">e</text><text xml:space="preserve" font-family="Helvetica-Light,Helvetica" font-size="22.0" fill="#FEFFFF" transform="matrix(1.00, 0.00, -0.00, -1.00, 920.8, 677.0)">e</text><text xml:space="preserve" font-family="Helvetica-Light,Helvetica" font-size="22.0" fill="#FEFFFF" transform="matrix(1.00, 0.00, -0.00, -1.00, 933.0, 677.0)">n</text><text xml:space="preserve" font-family="Helvetica-Light,Helvetica" font-size="22.0" fill="#FEFFFF" transform="matrix(1.00, 0.00, -0.00, -1.00, 945.3, 677.0)"> </text><text xml:space="preserve" font-family="Helvetica-Light,Helvetica" font-size="22.0" fill="#FEFFFF" transform="matrix(1.00, 0.00, -0.00, -1.00, 951.4, 677.0)">N</text><text xml:space="preserve" font-family="Helvetica-Light,Helvetica" font-size="22.0" fill="#FEFFFF" transform="matrix(1.00, 0.00, -0.00, -1.00, 967.3, 677.0)">g</text><text xml:space="preserve" font-family="Helvetica-Light,Helvetica" font-size="22.0" fill="#FEFFFF" transform="matrix(1.00, 0.00, -0.00, -1.00, 980.7, 677.0)">o</text></g></svg>