<?xml version="1.0" encoding="UTF-8" standalone="no"?><svg xmlns="http://www.w3.org/2000/svg" xmlns:xlink="http://www.w3.org/1999/xlink" clip-rule="evenodd" stroke-miterlimit="10" viewBox="0 0 1024 768"><desc>SVG generated by Keynote</desc><defs></defs><g transform="matrix(1.00, 0.00, -0.00, -1.00, 0.0, 768.0)"><path d="M 0.0 768.0 L 1024.0 768.0 L 1024.0 0.0 L 0.0 0.0 Z M 0.0 768.0 " fill="#000000"></path><text xml:space="preserve" font-family="Chalkduster,Chalkduster" font-size="63.0" fill="#961817" transform="matrix(1.00, 0.00, -0.00, -1.00, 162.4, 681.7)">S</text><text xml:space="preserve" font-family="Chalkduster,Chalkduster" font-size="63.0" fill="#961817" transform="matrix(1.00, 0.00, -0.00, -1.00, 193.8, 681.7)">a</text><text xml:space="preserve" font-family="Chalkduster,Chalkduster" font-size="63.0" fill="#961817" transform="matrix(1.00, 0.00, -0.00, -1.00, 237.2, 681.7)">w</text><text xml:space="preserve" font-family="Chalkduster,Chalkduster" font-size="63.0" fill="#961817" transform="matrix(1.00, 0.00, -0.00, -1.00, 288.6, 681.7)"> </text><text xml:space="preserve" font-family="Chalkduster,Chalkduster" font-size="63.0" fill="#961817" transform="matrix(1.00, 0.00, -0.00, -1.00, 320.0, 681.7)">I</text><text xml:space="preserve" font-family="Chalkduster,Chalkduster" font-size="63.0" fill="#961817" transform="matrix(1.00, 0.00, -0.00, -1.00, 357.6, 681.7)"> </text><text xml:space="preserve" font-family="Chalkduster,Chalkduster" font-size="63.0" fill="#961817" transform="matrix(1.00, 0.00, -0.00, -1.00, 388.9, 681.7)">:</text><text xml:space="preserve" font-family="Chalkduster,Chalkduster" font-size="63.0" fill="#961817" transform="matrix(1.00, 0.00, -0.00, -1.00, 409.7, 681.7)"> </text><text xml:space="preserve" font-family="Chalkduster,Chalkduster" font-size="63.0" fill="#961817" transform="matrix(1.00, 0.00, -0.00, -1.00, 435.7, 681.7)">T</text><text xml:space="preserve" font-family="Chalkduster,Chalkduster" font-size="63.0" fill="#961817" transform="matrix(1.00, 0.00, -0.00, -1.00, 484.1, 681.7)">h</text><text xml:space="preserve" font-family="Chalkduster,Chalkduster" font-size="63.0" fill="#961817" transform="matrix(1.00, 0.00, -0.00, -1.00, 523.0, 681.7)">e</text><text xml:space="preserve" font-family="Chalkduster,Chalkduster" font-size="63.0" fill="#961817" transform="matrix(1.00, 0.00, -0.00, -1.00, 562.0, 681.7)"> </text><text xml:space="preserve" font-family="Chalkduster,Chalkduster" font-size="63.0" fill="#961817" transform="matrix(1.00, 0.00, -0.00, -1.00, 593.4, 681.7)">R</text><text xml:space="preserve" font-family="Chalkduster,Chalkduster" font-size="63.0" fill="#961817" transform="matrix(1.00, 0.00, -0.00, -1.00, 642.4, 681.7)">e</text><text xml:space="preserve" font-family="Chalkduster,Chalkduster" font-size="63.0" fill="#961817" transform="matrix(1.00, 0.00, -0.00, -1.00, 681.1, 681.7)">v</text><text xml:space="preserve" font-family="Chalkduster,Chalkduster" font-size="63.0" fill="#961817" transform="matrix(1.00, 0.00, -0.00, -1.00, 719.8, 681.7)">e</text><text xml:space="preserve" font-family="Chalkduster,Chalkduster" font-size="63.0" fill="#961817" transform="matrix(1.00, 0.00, -0.00, -1.00, 758.2, 681.7)">r</text><text xml:space="preserve" font-family="Chalkduster,Chalkduster" font-size="63.0" fill="#961817" transform="matrix(1.00, 0.00, -0.00, -1.00, 790.7, 681.7)">s</text><text xml:space="preserve" font-family="Chalkduster,Chalkduster" font-size="63.0" fill="#961817" transform="matrix(1.00, 0.00, -0.00, -1.00, 822.5, 681.7)">e</text><text xml:space="preserve" font-family="Chalkduster,Chalkduster" font-size="63.0" fill="#961817" transform="matrix(1.00, 0.00, -0.00, -1.00, 861.6, 681.7)"> </text><text xml:space="preserve" font-family="Chalkduster,Chalkduster" font-size="63.0" fill="#961817" transform="matrix(1.00, 0.00, -0.00, -1.00, 228.9, 600.7)">B</text><text xml:space="preserve" font-family="Chalkduster,Chalkduster" font-size="63.0" fill="#961817" transform="matrix(1.00, 0.00, -0.00, -1.00, 271.0, 600.7)">e</text><text xml:space="preserve" font-family="Chalkduster,Chalkduster" font-size="63.0" fill="#961817" transform="matrix(1.00, 0.00, -0.00, -1.00, 310.0, 600.7)">a</text><text xml:space="preserve" font-family="Chalkduster,Chalkduster" font-size="63.0" fill="#961817" transform="matrix(1.00, 0.00, -0.00, -1.00, 350.1, 600.7)">r</text><text xml:space="preserve" font-family="Chalkduster,Chalkduster" font-size="63.0" fill="#961817" transform="matrix(1.00, 0.00, -0.00, -1.00, 383.3, 600.7)"> </text><text xml:space="preserve" font-family="Chalkduster,Chalkduster" font-size="63.0" fill="#961817" transform="matrix(1.00, 0.00, -0.00, -1.00, 409.4, 600.7)">T</text><text xml:space="preserve" font-family="Chalkduster,Chalkduster" font-size="63.0" fill="#961817" transform="matrix(1.00, 0.00, -0.00, -1.00, 452.7, 600.7)">r</text><text xml:space="preserve" font-family="Chalkduster,Chalkduster" font-size="63.0" fill="#961817" transform="matrix(1.00, 0.00, -0.00, -1.00, 485.9, 600.7)">a</text><text xml:space="preserve" font-family="Chalkduster,Chalkduster" font-size="63.0" fill="#961817" transform="matrix(1.00, 0.00, -0.00, -1.00, 529.4, 600.7)">p</text><text xml:space="preserve" font-family="Chalkduster,Chalkduster" font-size="63.0" fill="#961817" transform="matrix(1.00, 0.00, -0.00, -1.00, 568.3, 600.7)"> </text><text xml:space="preserve" font-family="Chalkduster,Chalkduster" font-size="63.0" fill="#961817" transform="matrix(1.00, 0.00, -0.00, -1.00, 599.6, 600.7)">S</text><text xml:space="preserve" font-family="Chalkduster,Chalkduster" font-size="63.0" fill="#961817" transform="matrix(1.00, 0.00, -0.00, -1.00, 631.0, 600.7)">c</text><text xml:space="preserve" font-family="Chalkduster,Chalkduster" font-size="63.0" fill="#961817" transform="matrix(1.00, 0.00, -0.00, -1.00, 669.1, 600.7)">e</text><text xml:space="preserve" font-family="Chalkduster,Chalkduster" font-size="63.0" fill="#961817" transform="matrix(1.00, 0.00, -0.00, -1.00, 708.8, 600.7)">n</text><text xml:space="preserve" font-family="Chalkduster,Chalkduster" font-size="63.0" fill="#961817" transform="matrix(1.00, 0.00, -0.00, -1.00, 756.0, 600.7)">e</text><image xlink:href="../../548D3932-0D5C-4B08-BCE6-336BCE9F59F7/assets/83F6ACD4BC7CF6253A17CA0687903F6E.png" width="640.00" height="360.00" transform="matrix(1.54, 0.00, -0.00, -1.54, 27.6, 584.0)"></image><path d="M 3.0 3.0 L 987.8 3.0 L 987.8 556.9 L 3.0 556.9 Z M 3.0 3.0 " fill="none" stroke="#FEFFFF" stroke-width="6.00" transform="matrix(1.00, 0.00, 0.00, -1.00, 24.6, 587.0)"></path></g></svg>